PathFileType	4	(X/Y/Z)	C:\Users\WrightLab\Desktop\Jo\P1_boxCal14.trc
DataRate	CameraRate	NumFrames	NumMarkers	Units	OrigDataRate	OrigDataStartFrame	OrigNumFrames
100.00	100.00	       21	19	mm	100.00	203	       811
Frame#	Time	Headset_Front			Headset_Back			Headset_Left			Headset_Right			Left_Shoulder			Right_Shoulder			Sternum			C7			Left Elbow			Right Elbow			Left Wrist			Right Wrist			Left ASIS			Right ASIS			S2			Left Knee			Right Knee			Left Ankle			Right Ankle			
		X1	Y1	Z1	X2	Y2	Z2	X3	Y3	Z3	X4	Y4	Z4	X5	Y5	Z5	X6	Y6	Z6	X7	Y7	Z7	X8	Y8	Z8	X9	Y9	Z9	X10	Y10	Z10	X11	Y11	Z11	X12	Y12	Z12	X13	Y13	Z13	X14	Y14	Z14	X15	Y15	Z15	X16	Y16	Z16	X17	Y17	Z17	X18	Y18	Z18	X19	Y19	Z19	

203	2.020	-1088.57996	473.68903	1310.44641	-1192.16101	1520.39978	1189.72766							-1151.41418	857.37604	1172.47998	-1537.72375	1019.76404	1112.09766				-1322.21509	882.55542	1066.82178							-1017.74658	178.07755	1470.12659	-1001.73260	975.43604	1347.81604				-1448.54663	471.37936	1143.63196	-1419.99109	94.49448	1199.63660	-1408.64075	990.78888	909.77948				-1399.60181	1310.25671	1128.36646	-1190.32422	1411.40051	1055.45764	
204	2.030	-1088.57361	474.98859	1309.55408	-1193.42957	1520.24084	1186.48352							-1152.51746	856.52942	1171.66968	-1538.96387	1019.03564	1109.28589				-1324.84375	881.19696	1068.80469							-1017.60999	179.48613	1467.85120	-1004.28882	976.26532	1345.86719							-1419.91846	94.24057	1199.35730	-1409.58459	989.77679	907.09991				-1401.27161	1310.01428	1124.93555	-1191.78284	1411.00562	1052.41089	
205	2.040	-1089.70740	475.67072	1308.30383	-1195.32483	1520.44458	1183.35779							-1155.30981	856.03790	1169.82544	-1540.49097	1018.40277	1106.29016				-1326.15137	881.64160	1063.45459							-1018.29358	181.24524	1466.74634	-1006.08588	976.27911	1344.66870	-1450.57336	468.95837	1139.60010				-1419.89453	94.11304	1199.47937							-1403.17126	1309.90063	1121.65564	-1193.33911	1410.81897	1049.53491	
206	2.050	-1090.94189	475.38489	1307.04053	-1196.05212	1519.98352	1180.16382							-1156.95813	856.49023	1166.69446	-1541.83667	1018.18146	1102.60754				-1327.96265	882.07892	1060.83191							-1018.55200	181.86955	1466.36951	-1007.42462	976.28180	1342.77161	-1451.52356	469.16724	1138.02124				-1419.96838	93.90688	1199.28003							-1405.00012	1309.71936	1118.42236	-1194.59473	1410.46387	1046.62109	
207	2.060	-1091.83643	475.84497	1305.64514	-1197.80249	1519.96802	1177.10132							-1158.73279	857.57355	1163.28638	-1542.95703	1017.51611	1099.66492				-1329.67786	881.41840	1058.49048							-1018.56506	182.74658	1465.40710	-1009.55786	976.61865	1341.01941	-1452.74316	468.03336	1137.55054				-1419.95972	93.56228	1199.35657				-1085.01306	1235.43799	1288.50122	-1406.89624	1309.52893	1115.34229	-1196.03845	1410.16821	1043.75098	
208	2.070	-1094.95386	475.99759	1303.59680	-1199.29846	1519.91626	1174.07190							-1160.50793	856.05603	1160.75916	-1544.46460	1016.91248	1097.08789				-1331.28552	880.78998	1057.29700							-1018.88446	183.55367	1463.57410	-1010.77631	977.83203	1340.08643	-1453.69653	467.00427	1136.87292				-1419.99585	93.38007	1199.38843				-1087.68860	1236.00110	1285.72815	-1408.71045	1309.36108	1112.28125	-1197.26685	1409.57556	1040.86304	
209	2.080	-1093.06250	477.27469	1300.58411	-1200.28259	1519.51660	1171.04102							-1160.93347	855.83643	1158.25562	-1545.75269	1016.60632	1093.97791				-1332.50708	881.72723	1053.43030							-1020.25482	184.11543	1462.38159	-1012.14813	978.43420	1338.95239	-1454.53223	467.36606	1135.21875				-1419.98914	93.08726	1199.37769				-1089.26086	1235.85779	1282.82837	-1410.53577	1308.99158	1109.30261	-1198.69275	1409.27551	1038.02222	
210	2.090	-1093.85303	477.25220	1298.80017	-1202.73083	1519.89795	1168.19385							-1163.04163	856.32013	1155.64087	-1547.19141	1016.16388	1091.19055				-1334.57581	879.40460	1054.95325							-1020.46478	184.56479	1461.99658	-1014.07660	978.87201	1337.68591	-1454.66174	465.63037	1132.19031				-1419.95215	92.91073	1199.55701				-1091.81226	1236.18420	1280.09192	-1412.48389	1308.69775	1106.36206	-1200.24243	1409.24573	1035.32385	
211	2.100	-1095.26575	477.31104	1296.19714	-1203.49829	1519.33679	1165.20251							-1163.64319	856.17841	1153.78430	-1548.69006	1015.51563	1089.57166				-1335.61279	879.80981	1050.89441							-1020.99994	185.83998	1459.93640	-1015.24738	980.15875	1336.69568	-1455.33459	465.06464	1132.66736				-1420.02209	92.66331	1199.58801	-1417.40930	984.42877	890.97650	-1092.94165	1235.75439	1277.14746	-1414.34338	1308.42798	1103.51123	-1201.64502	1409.11206	1032.59717	
212	2.110	-1095.72021	477.45477	1294.30542	-1205.84277	1519.66980	1162.45801							-1165.04211	856.56744	1151.78931	-1550.36780	1014.98499	1087.05505				-1337.29016	879.64563	1050.19287							-1021.39514	186.50276	1457.60229	-1017.42059	980.22479	1335.72009	-1455.66187	464.69785	1131.56494				-1420.06592	92.50242	1199.82446	-1419.04956	983.42499	892.42706	-1095.23267	1236.13293	1274.37292	-1416.30884	1308.11938	1100.84656	-1203.18774	1409.00659	1029.91553	
213	2.120	-1098.39734	476.44608	1291.55774	-1207.34753	1519.47595	1159.58752							-1166.38147	856.94897	1149.42627	-1551.96082	1014.46484	1084.48157				-1337.02979	880.55292	1043.69775							-1021.88043	186.74059	1456.35400	-1019.33795	980.38696	1334.62659	-1456.08948	464.22205	1130.52991				-1420.12708	92.16746	1200.00830	-1420.14929	983.17596	885.85663	-1096.22925	1235.77881	1271.33301	-1418.24878	1307.72986	1098.06445	-1204.72107	1408.78760	1027.15393	
214	2.130	-1095.94336	478.01959	1289.27612	-1209.58081	1519.76453	1156.91675							-1167.36340	856.38770	1146.91113	-1553.41980	1013.62805	1083.46204				-1339.05542	878.67480	1043.43091							-1022.11572	187.10475	1455.92419	-1018.58905	982.47101	1335.64087	-1456.68726	464.99622	1128.74048				-1420.13184	91.98505	1200.26721	-1421.70117	982.02942	886.89789	-1098.87500	1236.43823	1268.53625	-1420.08533	1307.20325	1095.42102	-1206.36023	1408.73755	1024.52356	
215	2.140	-1096.76526	478.35910	1286.76538	-1211.56470	1519.92432	1154.14575							-1168.38770	857.22412	1143.78943	-1555.32068	1013.15704	1081.56689				-1339.85303	879.44092	1037.71423							-1022.47174	188.89313	1454.65906	-1024.01855	981.87225	1332.83667	-1457.42908	464.39664	1129.26880				-1420.20593	91.76033	1200.40869	-1423.61853	980.87659	885.83698	-1100.04541	1236.35364	1265.76172	-1422.21204	1306.91504	1092.87585	-1207.87903	1408.63367	1021.80536	
216	2.150	-1096.83997	478.81992	1283.28455	-1213.68494	1520.18604	1151.45361							-1169.35059	856.30853	1142.46973	-1556.74377	1012.75922	1079.17236				-1341.04407	878.84955	1037.84253							-1022.78845	189.63431	1453.26563	-1025.60706	982.16864	1332.37720							-1420.34741	91.52065	1200.54688				-1101.96106	1236.76196	1262.74890	-1424.02380	1306.53064	1090.37488	-1209.67310	1408.74829	1019.18427	
217	2.160	-1097.73389	477.87082	1280.83057	-1215.99597	1520.53027	1148.75623							-1170.08936	856.91467	1139.51648	-1558.35376	1012.02411	1078.27026				-1342.85815	877.32770	1039.89001							-1022.94043	190.32318	1451.38416	-1028.67908	982.73419	1332.10559							-1420.38403	91.31975	1200.56030							-1426.05139	1306.21631	1087.98108	-1211.59143	1408.98328	1016.58636	
218	2.170	-1097.89197	478.15503	1277.75122	-1217.94580	1520.57886	1146.04407							-1170.51257	856.56995	1136.78210	-1559.99695	1011.45599	1076.58936				-1343.04187	878.40509	1032.90344							-1022.94897	191.82410	1448.51697	-1030.62793	983.50928	1331.67188							-1420.46265	91.18202	1200.56726							-1428.01892	1305.75574	1085.46875	-1213.51440	1409.09265	1014.02051	
219	2.180	-1097.93262	479.09961	1274.15930	-1220.32971	1520.96545	1143.46106							-1171.53369	856.96118	1134.87036	-1561.31519	1011.05652	1074.49902				-1344.76208	876.77161	1034.10620							-1022.78821	192.21857	1447.88745	-1033.18823	983.36938	1329.30066							-1420.47791	91.04273	1200.48047							-1429.97229	1305.33398	1083.13074	-1215.48682	1409.37939	1011.45166	
220	2.190	-1097.45020	478.67673	1271.46887	-1222.19202	1520.88965	1140.78455							-1172.49414	856.94940	1132.59106	-1562.77417	1010.40942	1073.23279				-1344.61865	878.49084	1028.34192							-1022.86951	193.58818	1445.52100	-1035.45667	984.30743	1329.27686							-1420.65869	90.92244	1200.38953							-1432.07971	1304.98828	1080.79736	-1217.37573	1409.41284	1008.87909	
221	2.200	-1097.58911	478.83475	1268.81104	-1224.50806	1521.16455	1138.23059							-1172.29749	856.90680	1130.38684	-1564.08813	1009.84387	1071.33862				-1346.35461	877.45856	1027.40259							-1023.41754	194.36044	1442.83801	-1038.74707	985.09607	1329.33569							-1420.65222	90.74038	1200.20325							-1433.87158	1304.60852	1078.56055	-1219.32922	1409.78955	1006.34961	
222	2.210	-1097.19519	479.62442	1264.54749	-1226.79248	1521.39783	1135.62488							-1174.34241	857.62598	1127.76245	-1565.28723	1009.36578	1069.45093				-1347.85559	877.02985	1027.24670							-1023.03149	195.51779	1439.72656	-1040.80847	985.92194	1328.72571							-1420.59058	90.58976	1200.00342							-1436.00085	1304.24719	1076.33264	-1221.34229	1409.83105	1003.79950	
223	2.220	-1096.51123	479.54492	1259.04883	-1228.91077	1521.47217	1133.14075							-1174.81799	857.47845	1126.62146	-1567.04187	1008.57538	1068.49451				-1348.43921	877.13855	1022.90637							-1024.08081	196.22571	1438.64294	-1043.94519	986.50006	1328.81030							-1420.61987	90.51015	1199.88245	-1057.26807	1286.53857	1024.43616				-1437.83130	1303.80908	1074.11243	-1223.43433	1410.08167	1001.30280	
